<svg xmlns="http://www.w3.org/2000/svg" width="24" height="24" viewBox="0 0 24 24" stroke-width="2" stroke="currentColor" fill="none" stroke-linecap="round" stroke-linejoin="round">
  <path stroke="none" d="M0 0h24v24H0z"/>
  <path d="M7 7l-3 3a3 3 0 0 0 0 4l4 4a3 3 0 0 0 4 0l3 -3" />
  <path d="M14 14l3 -3a3 3 0 0 0 0 -4l-4 -4a3 3 0 0 0 -4 0l-3 3" />
  <path d="M18 15v.01" />
  <path d="M16 17v.01" />
  <path d="M14 19v.01" />
  <path d="M18.5 12.5l3.5 4.5a2 2 0 0 1 -2 2h-1a2 2 0 0 1 -2 -2v-1" />
</svg>
